<?xml version="1.0" encoding="UTF-8" standalone="no"?>
<!DOCTYPE svg PUBLIC "-//W3C//DTD SVG 1.1//EN" "http://www.w3.org/Graphics/SVG/1.1/DTD/svg11.dtd">
<!-- Generado por Microsoft Visio, SVG Export AFS-262.svg Page-1 -->
<svg xmlns="http://www.w3.org/2000/svg" xmlns:xlink="http://www.w3.org/1999/xlink" xmlns:ev="http://www.w3.org/2001/xml-events"
		xmlns:v="http://schemas.microsoft.com/visio/2003/SVGExtensions/" width="2.63542in" height="1.03224in"
		viewBox="0 0 189.75 74.3215" xml:space="preserve" color-interpolation-filters="sRGB" class="st11">
	<v:documentProperties v:langID="1033" v:metric="true" v:viewMarkup="false">
		<v:userDefs>
			<v:ud v:nameU="msvNoAutoConnect" v:val="VT0(1):26"/>
		</v:userDefs>
	</v:documentProperties>

	<style type="text/css">
	<![CDATA[
		.st1 {fill:#e6e6e6;stroke:#000000;stroke-linecap:round;stroke-linejoin:round;stroke-width:0.75}
		.st2 {fill:#b3b3b3;stroke:#000000;stroke-linecap:round;stroke-linejoin:round;stroke-width:0.75}
		.st3 {fill:#666666;stroke:#000000;stroke-linecap:round;stroke-linejoin:round;stroke-width:0.75}
		.st4 {fill:#c0c0c0;stroke:#000000;stroke-linecap:round;stroke-linejoin:round;stroke-width:0.24}
		.st5 {fill:url(#grad0-21);stroke:#000000;stroke-linecap:round;stroke-linejoin:round;stroke-width:0.24}
		.st6 {fill:url(#grad0-27);stroke:#000000;stroke-linecap:round;stroke-linejoin:round;stroke-width:0.24}
		.st7 {stroke:#008000;stroke-linecap:round;stroke-linejoin:round;stroke-width:0.75}
		.st8 {stroke:#ff0000;stroke-linecap:round;stroke-linejoin:round;stroke-width:0.75}
		.st9 {fill:none;stroke:none;stroke-linecap:round;stroke-linejoin:round;stroke-width:0.75}
		.st10 {fill:#000000;font-family:Calibri;font-size:1.00001em}
		.st11 {fill:none;fill-rule:evenodd;font-size:12px;overflow:visible;stroke-linecap:square;stroke-miterlimit:3}
	]]>
	</style>

	<defs id="Patterns_And_Gradients">
		<linearGradient id="grad0-21" x1="0" y1="0" x2="1" y2="0" gradientTransform="rotate(0 0.5 0.5)">
			<stop offset="0" stop-color="#ffffff" stop-opacity="1"/>
			<stop offset="1" stop-color="#c6c600" stop-opacity="1"/>
		</linearGradient>
		<linearGradient id="grad0-27" x1="0" y1="0" x2="1" y2="0" gradientTransform="rotate(0 0.5 0.5)">
			<stop offset="0" stop-color="#e6e6e6" stop-opacity="1"/>
			<stop offset="1" stop-color="#b3b3b3" stop-opacity="1"/>
		</linearGradient>
	</defs>
	<g v:mID="0" v:index="1" v:groupContext="foregroundPage">
		<v:userDefs>
			<v:ud v:nameU="AutoPlace" v:val="VT0(0):5"/>
		</v:userDefs>
		<title>Página-1</title>
		<v:pageProperties v:drawingScale="0.0393701" v:pageScale="0.0393701" v:drawingUnits="24" v:shadowOffsetX="8.50394"
				v:shadowOffsetY="-8.50394"/>
		<v:layer v:name="Drawing" v:index="0"/>
		<g id="shape2-1" v:mID="2" v:groupContext="shape" v:layerMember="0" transform="translate(83.7776,-25.1476)">
			<title>Hoja.2</title>
			<path d="M4.5 70.95 L0 74.32 L18 74.32 L22.5 70.95 L4.5 70.95 Z" class="st1"/>
		</g>
		<g id="shape3-3" v:mID="3" v:groupContext="shape" v:layerMember="0" transform="translate(83.7776,-19.5226)">
			<title>Hoja.3</title>
			<rect x="0" y="68.6965" width="18" height="5.625" class="st2"/>
		</g>
		<g id="shape4-5" v:mID="4" v:groupContext="shape" v:layerMember="0" transform="translate(101.778,-19.5226)">
			<title>Hoja.4</title>
			<path d="M0 74.32 L4.5 70.95 L4.5 65.32 L0 68.7 L0 74.32 Z" class="st3"/>
		</g>
		<g id="group5-7" transform="translate(99.4276,-26.4642)" v:mID="5" v:groupContext="group" v:layerMember="0">
			<title>Hoja.5</title>
			<g id="shape6-8" v:mID="6" v:groupContext="shape" v:layerMember="0">
				<title>Hoja.6</title>
				<path d="M0 74.12 a0.6 0.204545 -180 1 0 1.2 0 L1.2 73.03 L0 73.03 L0 74.12 Z" class="st4"/>
			</g>
			<g id="shape7-10" v:mID="7" v:groupContext="shape" v:layerMember="0" transform="translate(1.4358E-11,-1.09091)">
				<title>Hoja.7</title>
				<ellipse cx="0.6" cy="74.1169" rx="0.6" ry="0.204545" class="st4"/>
			</g>
		</g>
		<g id="group8-12" transform="translate(94.6276,-26.5309)" v:mID="8" v:groupContext="group" v:layerMember="0">
			<title>Hoja.8</title>
			<g id="shape9-13" v:mID="9" v:groupContext="shape" v:layerMember="0">
				<title>Hoja.9</title>
				<path d="M0 74.12 a0.6 0.204545 -180 1 0 1.2 0 L1.2 73.03 L0 73.03 L0 74.12 Z" class="st4"/>
			</g>
			<g id="shape10-15" v:mID="10" v:groupContext="shape" v:layerMember="0" transform="translate(1.4358E-11,-1.09091)">
				<title>Hoja.10</title>
				<ellipse cx="0.6" cy="74.1169" rx="0.6" ry="0.204545" class="st4"/>
			</g>
		</g>
		<g id="group11-17" transform="translate(122.542,-18.2726)" v:mID="11" v:groupContext="group" v:layerMember="0">
			<title>Hoja.11</title>
			<g id="shape12-18" v:mID="12" v:groupContext="shape" v:layerMember="0" transform="translate(3.79687,2.84217E-14)">
				<title>Hoja.12</title>
				<path d="M0 70.51 L0 74.31 A2.87281 1.94406 -180 0 0 0.81 74.29 L0.81 70.51 L0 70.51 Z" class="st5"/>
			</g>
			<g id="shape13-22" v:mID="13" v:groupContext="shape" v:layerMember="0" transform="translate(0,-2.59444)">
				<title>Hoja.13</title>
				<path d="M0 74.32 L3.12 71.52 L8.8 71.52 L5.69 74.32 L0 74.32 Z" class="st4"/>
			</g>
			<g id="shape14-24" v:mID="14" v:groupContext="shape" v:layerMember="0" transform="translate(3.05775,-3.49473)">
				<title>Duct Temp Sensor.220</title>
				<path d="M0 73.94 L0 70.69 L2.24 70.69 L2.24 73.94 A1.82884 1.82884 0 0 1 0 73.94 Z" class="st6"/>
			</g>
			<g id="shape15-28" v:mID="15" v:groupContext="shape" v:layerMember="0" transform="translate(3.1,-6.9)">
				<title>Hoja.15</title>
				<ellipse cx="1.05" cy="74.0215" rx="1.05" ry="0.3" class="st4"/>
			</g>
		</g>
		<g id="group16-30" transform="translate(58.8419,-18.12)" v:mID="16" v:groupContext="group" v:layerMember="0">
			<title>Hoja.16</title>
			<g id="shape17-31" v:mID="17" v:groupContext="shape" v:layerMember="0" transform="translate(3.89687,0)">
				<title>Hoja.17</title>
				<path d="M0 70.51 L0 74.31 A2.87281 1.94406 -180 0 0 0.81 74.29 L0.81 70.51 L0 70.51 Z" class="st5"/>
			</g>
			<g id="shape18-34" v:mID="18" v:groupContext="shape" v:layerMember="0" transform="translate(0,-2.6)">
				<title>Hoja.18</title>
				<path d="M0 74.32 L3.12 71.52 L8.8 71.52 L5.69 74.32 L0 74.32 Z" class="st4"/>
			</g>
			<g id="shape19-36" v:mID="19" v:groupContext="shape" v:layerMember="0" transform="translate(3.05775,-3.6)">
				<title>Duct Temp Sensor.689</title>
				<path d="M0 73.94 L0 70.69 L2.24 70.69 L2.24 73.94 A1.82884 1.82884 0 0 1 0 73.94 Z" class="st6"/>
			</g>
			<g id="shape20-39" v:mID="20" v:groupContext="shape" v:layerMember="0" transform="translate(3.1,-7.00527)">
				<title>Hoja.20</title>
				<ellipse cx="1.05" cy="74.0215" rx="1.05" ry="0.3" class="st4"/>
			</g>
		</g>
		<g id="shape21-41" v:mID="21" v:groupContext="shape" v:layerMember="0" transform="translate(63.1614,-24.8321)">
			<title>Hoja.21</title>
			<path d="M31.78 71.33 A7.70254 7.70254 -180 0 0 22.78 64.13 A24.7877 9.14528 -0.99 0 0 0 73.42" class="st7"/>
		</g>
		<g id="shape22-44" v:mID="22" v:groupContext="shape" v:layerMember="0" transform="translate(99.864,-25.8511)">
			<title>Hoja.22</title>
			<path d="M0.05 72.47 A5.82127 5.82127 0 0 1 6.25 65.9 A20.2868 8.08475 178 0 1 27 74.32" class="st8"/>
		</g>
		<g id="shape24-47" v:mID="24" v:groupContext="shape" transform="translate(18.375,-44.6216)">
			<title>Hoja.24</title>
			<desc>AFS-262</desc>
			<v:textBlock v:margins="rect(4,4,4,4)" v:tabSpace="42.5197"/>
			<v:textRect cx="76.5" cy="69.8215" width="153" height="9"/>
			<rect x="0" y="65.3215" width="153" height="9" class="st9"/>
			<text x="56.55" y="73.42" class="st10" v:langID="9226"><v:paragraph v:horizAlign="1"/><v:tabList/>AFS-262</text>		</g>
	</g>
</svg>
