<?xml version="1.0" encoding="UTF-8" standalone="no"?>
<!DOCTYPE svg PUBLIC "-//W3C//DTD SVG 1.1//EN" "http://www.w3.org/Graphics/SVG/1.1/DTD/svg11.dtd">
<!-- Generado por Microsoft Visio, SVG Export SUPPLY_FAN.svg Página-1 -->
<svg xmlns="http://www.w3.org/2000/svg" xmlns:xlink="http://www.w3.org/1999/xlink" xmlns:ev="http://www.w3.org/2001/xml-events"
		xmlns:v="http://schemas.microsoft.com/visio/2003/SVGExtensions/" width="0.906944in" height="0.520833in"
		viewBox="0 0 65.3 37.5" xml:space="preserve" color-interpolation-filters="sRGB" class="st15">
	<v:documentProperties v:langID="9226" v:metric="true" v:viewMarkup="false"/>

	<style type="text/css">
	<![CDATA[
		.st1 {fill:#cfcfcf;stroke:#cfcfcf;stroke-linecap:butt;stroke-width:0.75}
		.st2 {fill:url(#grad0-7);stroke:none;stroke-linecap:butt;stroke-width:0.75}
		.st3 {fill:url(#grad0-11);stroke:none;stroke-linecap:butt;stroke-width:0.75}
		.st4 {stroke:#000000;stroke-linecap:butt;stroke-width:0.75}
		.st5 {fill:url(#grad0-7);stroke:#000000;stroke-linecap:butt;stroke-width:0.2}
		.st6 {fill:#505050;stroke:#000000;stroke-linecap:butt;stroke-width:0.75}
		.st7 {fill:#4f4f4f;stroke:#000000;stroke-linecap:butt;stroke-width:0.75}
		.st8 {fill:#4f4f4f;stroke:#5f5f5f;stroke-linecap:butt;stroke-width:0.75}
		.st9 {stroke:#000000;stroke-linecap:butt;stroke-width:0.2}
		.st10 {fill:#505050;stroke:#000000;stroke-linecap:butt;stroke-width:0.2}
		.st11 {fill:#808080;stroke:#000000;stroke-linecap:butt;stroke-width:0.2}
		.st12 {fill:#7f7f7f;stroke:#000000;stroke-linecap:butt;stroke-width:0.2}
		.st13 {fill:#808080;stroke:#000000;stroke-linecap:butt;stroke-width:0.75}
		.st14 {fill:none;stroke:#000000;stroke-linecap:butt;stroke-width:0.2}
		.st15 {fill:none;fill-rule:evenodd;font-size:12px;overflow:visible;stroke-linecap:square;stroke-miterlimit:3}
	]]>
	</style>

	<defs id="Patterns_And_Gradients">
		<linearGradient id="grad0-7" x1="0" y1="0" x2="1" y2="0" gradientTransform="rotate(90 0.5 0.5)">
			<stop offset="0" stop-color="#9a9a9a" stop-opacity="1"/>
			<stop offset="1" stop-color="#e6e6e6" stop-opacity="1"/>
		</linearGradient>
		<linearGradient id="grad0-11" x1="0" y1="0" x2="1" y2="0" gradientTransform="rotate(270 0.5 0.5)">
			<stop offset="0" stop-color="#666666" stop-opacity="1"/>
			<stop offset="1" stop-color="#b3b3b3" stop-opacity="1"/>
		</linearGradient>
	</defs>
	<g v:mID="0" v:index="1" v:groupContext="foregroundPage">
		<title>Página-1</title>
		<v:pageProperties v:drawingScale="0.0393701" v:pageScale="0.0393701" v:drawingUnits="24" v:shadowOffsetX="8.50394"
				v:shadowOffsetY="-8.50394"/>
		<v:layer v:name="Drawing" v:index="0"/>
		<g id="group59-1" transform="translate(1.15,-0.75)" v:mID="59" v:groupContext="group" v:layerMember="0">
			<v:custProps>
				<v:cp v:nameU="Label1" v:lbl="Label 1" v:prompt="Select a label or type your own." v:type="4"
						v:format="Command;Status;Speed;Speed Cmd;Speed Sts;VSD Fault;KW;KWH;Runtime;Amps" v:langID="1033" v:cal="0"
						v:val="VT4(Command)"/>
				<v:cp v:nameU="Label2" v:lbl="Label 2" v:prompt="Select a label or type your own." v:type="4"
						v:format="Command;Status;Speed;Speed Cmd;Speed Sts;VSD Fault;KW;KWH;Runtime;Amps" v:langID="1033" v:cal="0"
						v:val="VT4(Speed Sts)"/>
				<v:cp v:nameU="Label3" v:lbl="Label 3" v:prompt="Select a label or type your own." v:type="4"
						v:format="Command;Status;Speed;Speed Cmd;Speed Sts;VSD Fault;KW;KWH;Runtime;Amps" v:langID="1033" v:cal="0"
						v:val="VT4(VSD Fault)"/>
				<v:cp v:nameU="HideLabel1" v:lbl="HideLabel1" v:prompt="Select TRUE to hide the label." v:type="3" v:langID="1033"
						v:cal="0" v:val="VT0(0):5"/>
				<v:cp v:nameU="HideLabel2" v:lbl="HideLabel2" v:prompt="Select TRUE to hide the label." v:type="3" v:langID="1033"
						v:cal="0" v:val="VT0(1):5"/>
				<v:cp v:nameU="HideLabel3" v:lbl="HideLabel3" v:prompt="Select TRUE to hide the label." v:type="3" v:langID="1033"
						v:cal="0" v:val="VT0(1):5"/>
			</v:custProps>
			<v:userDefs>
				<v:ud v:nameU="ClassID" v:val="VT4(HVACAIR.SupplyFan)"/>
				<v:ud v:nameU="Version" v:val="VT4(1.1)"/>
				<v:ud v:nameU="Origin" v:val="VT4(MKEHQ)"/>
				<v:ud v:nameU="HideCommand"/>
				<v:ud v:nameU="HideSpeed"/>
				<v:ud v:nameU="HideLabel3"/>
			</v:userDefs>
			<title>Supply Fan</title>
			<g id="shape60-2" v:mID="60" v:groupContext="shape" v:layerMember="0" transform="translate(15.9158,-0.75)">
				<title>Hoja.60</title>
				<path d="M0.66 37.5 L13.93 30.75 L13.93 29.25 L0 29.25 L0.66 37.5 L0.66 37.5 Z" class="st1"/>
			</g>
			<g id="shape61-4" v:mID="61" v:groupContext="shape" v:layerMember="0" transform="translate(-0.300497,-1.7053E-13)">
				<title>Hoja.61</title>
				<rect x="0" y="28.5" width="17.8431" height="9" class="st2"/>
			</g>
			<g id="shape62-8" v:mID="62" v:groupContext="shape" v:layerMember="0" transform="translate(-0.3,-9)">
				<title>Hoja.62</title>
				<rect x="0" y="10.5" width="63.6" height="27" class="st3"/>
			</g>
			<g id="shape63-12" v:mID="63" v:groupContext="shape" v:layerMember="0" transform="translate(41.7789,-1.7053E-13)">
				<title>Hoja.63</title>
				<path d="M0 37.5 L11.94 28.5" class="st4"/>
			</g>
			<g id="shape64-15" v:mID="64" v:groupContext="shape" v:layerMember="0" transform="translate(41.4803,-1.7053E-13)">
				<title>Hoja.64</title>
				<rect x="0" y="28.5" width="21.8184" height="9" class="st2"/>
			</g>
			<g id="shape65-18" v:mID="65" v:groupContext="shape" v:layerMember="0" transform="translate(33.1579,1.77636E-13)">
				<title>Hoja.65</title>
				<path d="M0 28.5 L8.62 37.5 L20.56 28.5 L11.94 19.5 L0 28.5 L0 28.5 Z" class="st5"/>
			</g>
			<g id="shape66-21" v:mID="66" v:groupContext="shape" v:layerMember="0" transform="translate(4.64211,1.77636E-13)">
				<title>Hoja.66</title>
				<path d="M14.59 13.5 L14.59 16.5 L15.92 21 L17.91 23.25 L17.91 23.25 L20.56 25.5 L23.21 26.25 L21.88 29.25 L20.56
							 32.25 L18.57 34.5 L15.92 36 L11.94 37.5 L7.96 36 L5.97 34.5 L3.32 33 L1.33 30 L0 26.25 L0.66 22.5 L1.33
							 18.75 L2.65 15.75 L5.97 14.25 L7.96 12.75 L9.95 12.75 L13.93 12 L14.59 13.5 L14.59 13.5 Z" class="st6"/>
			</g>
			<g id="shape67-23" v:mID="67" v:groupContext="shape" v:layerMember="0" transform="translate(17.2421,-9)">
				<title>Hoja.67</title>
				<path d="M11.94 37.5 L11.27 37.5 L8.62 36.75 L6.63 36 L5.31 35.25 L1.99 31.5 L1.33 30 L0.66 28.5 L0 25.5 L0 22.5
							 L0.66 19.5 L1.99 16.5 L3.32 15 L4.64 13.5 L6.63 12 L7.96 11.25 L10.61 10.5 L11.94 10.5 L11.94 12.75
							 L11.27 12.75 L7.96 13.5 L5.97 15 L3.98 17.25 L2.65 19.5 L1.99 22.5 L1.99 24.75 L2.65 27.75 L3.98 30.75
							 L5.31 32.25 L5.97 33 L7.29 33.75 L8.62 34.5 L10.61 35.25 L11.94 35.25 L11.94 37.5 L11.94 37.5 Z"
						class="st7"/>
			</g>
			<g id="shape68-25" v:mID="68" v:groupContext="shape" v:layerMember="0" transform="translate(29.1789,-9)">
				<title>Hoja.68</title>
				<path d="M0 37.5 L0.66 37.5 L3.32 36.75 L5.31 36 L6.63 35.25 L9.95 31.5 L10.61 30 L11.27 28.5 L15.92 28.5 L15.92
							 23.25 L15.92 19.5 L15.92 14.25 L15.92 12 L15.92 12 L15.92 12 L15.92 12 L15.92 10.5 L0 10.5 L0 12.75
							 L0.66 12.75 L3.98 13.5 L5.97 15 L7.96 17.25 L9.28 19.5 L9.95 22.5 L9.95 24.75 L9.28 27.75 L7.96 30.75
							 L6.63 32.25 L5.97 33 L4.64 33.75 L3.32 34.5 L1.33 35.25 L0 35.25 L0 37.5 L0 37.5 Z" class="st8"/>
			</g>
			<g id="shape69-27" v:mID="69" v:groupContext="shape" v:layerMember="0" transform="translate(17.2421,-9)">
				<title>Hoja.69</title>
				<path d="M11.27 37.5 L8.62 36.75 L6.63 36 L5.31 35.25 L3.98 33.75 L1.99 31.5 L1.33 30 L0.66 28.5 L0 25.5 L0 22.5
							 L0.66 19.5 L1.99 16.5 L4.64 13.5 L6.63 12 L7.96 11.25 L10.61 10.5 L13.26 10.5 L27.85 10.5 L27.85 10.5
							 L27.85 10.5 L27.85 10.5 L27.85 10.5 L27.85 10.5 L27.85 10.5 L27.85 28.5 L23.21 28.5 L21.88 31.5 L19.89
							 33.75 L18.57 35.25 L17.24 36 L15.25 36.75 L12.6 37.5 L11.27 37.5" class="st9"/>
			</g>
			<g id="shape70-30" v:mID="70" v:groupContext="shape" v:layerMember="0" transform="translate(19.2316,-11.25)">
				<title>Hoja.70</title>
				<path d="M8.62 37.5 L6.63 36.75 L3.98 35.25 L1.99 33 L0.66 30 L0 27 L0 24.75 L0.66 21.75 L1.99 19.5 L3.98 17.25 L5.97
							 15.75 L9.28 15 L10.61 15 L13.93 15.75 L15.92 17.25 L17.91 19.5 L19.23 21.75 L19.89 24.75 L19.89 27 L19.23
							 30 L17.91 33 L15.92 35.25 L13.26 36.75 L11.27 37.5 L8.62 37.5" class="st4"/>
			</g>
			<g id="shape71-33" v:mID="71" v:groupContext="shape" v:layerMember="0" transform="translate(19.2316,-11.25)">
				<title>Hoja.71</title>
				<ellipse cx="9.94737" cy="26.25" rx="9.94737" ry="11.25" class="st10"/>
			</g>
			<g id="shape72-35" v:mID="72" v:groupContext="shape" v:layerMember="0" transform="translate(23.2105,-2.25)">
				<title>Hoja.72</title>
				<path d="M0 37.5 L11.94 27.75 L4.64 30 L3.32 33 L1.99 34.5 L0 37.5 L0 37.5 Z" class="st7"/>
			</g>
			<g id="shape73-37" v:mID="73" v:groupContext="shape" v:layerMember="0" transform="translate(28.5158,-9)">
				<title>Hoja.73</title>
				<path d="M0 37.5 L3.98 37.5 L4.64 37.5 L16.58 28.5 L11.94 28.5 L0 37.5 L0 37.5 Z" class="st11"/>
			</g>
			<g id="shape74-39" v:mID="74" v:groupContext="shape" v:layerMember="0" transform="translate(9.94737,-24.75)">
				<title>Hoja.74</title>
				<path d="M15.92 26.25 L35.15 26.25 L22.55 35.25 L9.28 35.25 L5.31 35.25 L0 37.5 L15.92 26.25 Z" class="st12"/>
			</g>
			<g id="shape75-41" v:mID="75" v:groupContext="shape" v:layerMember="0" transform="translate(4.64211,0)">
				<title>Hoja.75</title>
				<path d="M11.94 37.5 L11.27 37.5 L8.62 36.75 L6.63 36 L5.31 35.25 L1.99 31.5 L1.33 30 L0.66 28.5 L0 25.5 L0 22.5
							 L0.66 19.5 L1.99 16.5 L3.32 15 L4.64 13.5 L6.63 12 L7.96 11.25 L10.61 10.5 L11.94 10.5 L11.94 12.75
							 L11.27 12.75 L7.96 13.5 L5.97 15 L3.98 17.25 L2.65 19.5 L1.99 22.5 L1.99 24.75 L2.65 27.75 L3.98 30.75
							 L5.31 32.25 L5.97 33 L7.29 33.75 L8.62 34.5 L10.61 35.25 L11.94 35.25 L11.94 37.5 L11.94 37.5 Z"
						class="st13"/>
			</g>
			<g id="shape76-43" v:mID="76" v:groupContext="shape" v:layerMember="0" transform="translate(16.5789,0)">
				<title>Hoja.76</title>
				<path d="M0 37.5 L0.66 37.5 L3.32 36.75 L5.31 36 L6.63 35.25 L9.95 31.5 L10.61 30 L11.27 28.5 L15.92 28.5 L15.92
							 23.25 L15.92 19.5 L15.92 14.25 L15.92 12 L15.92 12 L15.92 12 L15.92 12 L15.92 10.5 L0 10.5 L0 12.75
							 L0.66 12.75 L3.98 13.5 L5.97 15 L7.96 17.25 L9.28 19.5 L9.95 22.5 L9.95 24.75 L9.28 27.75 L7.96 30.75
							 L6.63 32.25 L5.97 33 L4.64 33.75 L3.32 34.5 L1.33 35.25 L0 35.25 L0 37.5 L0 37.5 Z" class="st11"/>
			</g>
			<g id="shape77-45" v:mID="77" v:groupContext="shape" v:layerMember="0" transform="translate(4.64211,0)">
				<title>Hoja.77</title>
				<path d="M11.27 37.5 L8.62 36.75 L6.63 36 L5.31 35.25 L3.98 33.75 L1.99 31.5 L1.33 30 L0.66 28.5 L0 25.5 L0.04 22.5
							 L0.66 19.5 L1.99 16.5 L4.64 13.5 L6.63 12 L7.96 11.25 L10.61 10.5 L13.26 10.5 L27.85 10.5 L27.85 10.5
							 L27.85 10.5 L27.85 10.5 L27.85 10.5 L27.85 10.5 L27.85 10.5 L27.85 28.5 L23.21 28.5 L21.88 31.5 L19.89
							 33.75 L18.57 35.25 L17.24 36 L15.25 36.75 L12.6 37.5 L11.27 37.5 Z" class="st14"/>
			</g>
			<g id="shape78-47" v:mID="78" v:groupContext="shape" v:layerMember="0" transform="translate(6.63158,-2.25)">
				<title>Hoja.78</title>
				<path d="M8.62 37.5 L6.63 36.75 L3.98 35.25 L1.99 33 L0.66 30 L0 27 L0 24.75 L0.66 21.75 L1.99 19.5 L3.98 17.25 L5.97
							 15.75 L9.28 15 L10.61 15 L13.93 15.75 L15.92 17.25 L17.91 19.5 L19.23 21.75 L19.89 24.75 L19.89 27 L19.23
							 30 L17.91 33 L15.92 35.25 L13.26 36.75 L11.27 37.5 L8.62 37.5" class="st9"/>
			</g>
			<g id="shape79-50" v:mID="79" v:groupContext="shape" v:layerMember="0">
				<title>Hoja.79</title>
				<path d="M-0.4 10.5 L63.4 10.5" class="st4"/>
				<path d="M-0.4 1.5 L63.4 1.5" class="st4"/>
				<path d="M-0.4 28.5 L5.33 28.5" class="st4"/>
				<path d="M16.5 37.5 L-0.4 37.5" class="st4"/>
				<path d="M63.4 37.5 L41.7 37.5" class="st4"/>
				<path d="M53.6 28.5 L63.4 28.5" class="st4"/>
			</g>
			<g id="shape59-58" v:mID="59" v:groupContext="groupContent" v:layerMember="0">
				<v:textBlock v:margins="rect(0,0,0,0)" v:tabSpace="42.5197"/>
			</g>
		</g>
	</g>
</svg>
