<?xml version="1.0" encoding="UTF-8" standalone="no"?>
<!DOCTYPE svg PUBLIC "-//W3C//DTD SVG 1.1//EN" "http://www.w3.org/Graphics/SVG/1.1/DTD/svg11.dtd">
<!-- Generado por Microsoft Visio, SVG Export COOLING_COIL.svg Página-1 -->
<svg xmlns="http://www.w3.org/2000/svg" xmlns:xlink="http://www.w3.org/1999/xlink" xmlns:ev="http://www.w3.org/2001/xml-events"
		xmlns:v="http://schemas.microsoft.com/visio/2003/SVGExtensions/" width="0.33449in" height="0.510437in"
		viewBox="0 0 24.0833 36.7515" xml:space="preserve" color-interpolation-filters="sRGB" class="st10">
	<v:documentProperties v:langID="9226" v:metric="true" v:viewMarkup="false"/>

	<style type="text/css">
	<![CDATA[
		.st1 {fill:#ffffff;stroke:none;stroke-linecap:round;stroke-linejoin:round;stroke-width:0.75}
		.st2 {fill:url(#grad0-7);stroke:none;stroke-linecap:round;stroke-linejoin:round;stroke-width:0.75}
		.st3 {fill:url(#grad0-11);stroke:none;stroke-linecap:round;stroke-linejoin:round;stroke-width:0.75}
		.st4 {fill:#ffffff}
		.st5 {stroke:#000000;stroke-linecap:round;stroke-linejoin:round;stroke-width:0.75}
		.st6 {fill:url(#grad0-7)}
		.st7 {stroke:none;stroke-linecap:round;stroke-linejoin:round;stroke-width:0.75}
		.st8 {fill:none;stroke:#000000;stroke-linecap:round;stroke-linejoin:round;stroke-width:0.75}
		.st9 {fill:url(#grad1-27);stroke:none;stroke-linecap:round;stroke-linejoin:round;stroke-width:0.75}
		.st10 {fill:none;fill-rule:evenodd;font-size:12px;overflow:visible;stroke-linecap:square;stroke-miterlimit:3}
	]]>
	</style>

	<defs id="Patterns_And_Gradients">
		<linearGradient id="grad0-7" x1="0" y1="0" x2="1" y2="0" gradientTransform="rotate(270 0.5 0.5)">
			<stop offset="0" stop-color="#0000ff" stop-opacity="1"/>
			<stop offset="1" stop-color="#9997f9" stop-opacity="1"/>
		</linearGradient>
		<linearGradient id="grad0-11" x1="0" y1="0" x2="1" y2="0" gradientTransform="rotate(270 0.5 0.5)">
			<stop offset="0" stop-color="#0000ff" stop-opacity="1"/>
			<stop offset="1" stop-color="#4d48f4" stop-opacity="1"/>
		</linearGradient>
		<radialGradient id="grad1-27" cx="1" cy="1" r="1.4">
			<stop offset="0" stop-color="#000000" stop-opacity="1"/>
			<stop offset="1" stop-color="#c48b19" stop-opacity="1"/>
		</radialGradient>
	</defs>
	<g v:mID="0" v:index="1" v:groupContext="foregroundPage">
		<v:custProps>
			<v:cp v:nameU="HideLabel" v:lbl="HideLabels" v:type="3" v:langID="1033" v:val="VT0(0):5"/>
		</v:custProps>
		<v:userDefs>
			<v:ud v:nameU="AutoPlace" v:val="VT0(0):5"/>
			<v:ud v:nameU="HideLabel" v:val="VT0(0):5"/>
			<v:ud v:nameU="HideValueBox" v:val="VT0(0):5"/>
		</v:userDefs>
		<title>Página-1</title>
		<v:pageProperties v:drawingScale="0.0393701" v:pageScale="0.0393701" v:drawingUnits="24" v:shadowOffsetX="8.50394"
				v:shadowOffsetY="-8.50394"/>
		<v:layer v:name="Drawing" v:index="0"/>
		<g id="group35-1" transform="translate(0.375,-0.375)" v:mID="35" v:groupContext="group" v:layerMember="0">
			<v:userDefs>
				<v:ud v:nameU="ClassID" v:val="VT4(HVACAIR.CoolingCoil)"/>
				<v:ud v:nameU="Version" v:val="VT4(1.1)"/>
				<v:ud v:nameU="Origin" v:val="VT4(MKEHQ)"/>
				<v:ud v:nameU="AutoPlace" v:val="VT0(0):5"/>
				<v:ud v:nameU="AutoPinX"/>
				<v:ud v:nameU="AutoPinY"/>
				<v:ud v:nameU="HideLabel" v:val="VT0(1):5"/>
				<v:ud v:nameU="HideValueBox" v:val="VT0(1):5"/>
				<v:ud v:nameU="HideLabel" v:prompt="" v:val="VT0(0):5"/>
				<v:ud v:nameU="HideValueBox" v:prompt="" v:val="VT0(0):5"/>
			</v:userDefs>
			<title>Cooling Coil</title>
			<g id="shape36-2" v:mID="36" v:groupContext="shape" v:layerMember="0" transform="translate(11.8043,-0.0663222)">
				<title>Hoja.36</title>
				<path d="M11.49 0.84 L0 9.82 L0.03 36.75 L11.49 0.84 Z" class="st1"/>
			</g>
			<g id="shape37-4" v:mID="37" v:groupContext="shape" v:layerMember="0" transform="translate(-1.15907E-13,-27.0015)">
				<title>Hoja.37</title>
				<path d="M11.66 36.75 L23.33 27.75 L11.8 27.75 L0 36.75 L11.66 36.75 Z" class="st2"/>
			</g>
			<g id="shape38-8" v:mID="38" v:groupContext="shape" v:layerMember="0" transform="translate(1.15907E-13,-0.00149479)">
				<title>Hoja.38</title>
				<rect x="0" y="9.75149" width="11.8125" height="27" class="st3"/>
			</g>
			<g id="shape39-12" v:mID="39" v:groupContext="shape" v:layerMember="0" transform="translate(11.748,0)">
				<title>Hoja.39</title>
				<path d="M0 36.75 L0.09 36.69 L0 36.75 Z" class="st4"/>
				<path d="M0 36.75 L0.09 36.69" class="st5"/>
			</g>
			<g id="shape40-15" v:mID="40" v:groupContext="shape" v:layerMember="0" transform="translate(11.8125,-0.00149479)">
				<title>Hoja.40</title>
				<path d="M11.52 0.75 L0 36.75 L11.51 27.75 L11.51 0.75 L11.52 0.75 Z" class="st6"/>
				<path d="M11.52 0.75 L0 36.75 L11.51 27.75 L11.51 0.75" class="st7"/>
			</g>
			<g id="shape41-19" v:mID="41" v:groupContext="shape" v:layerMember="0" transform="translate(-1.15907E-13,-0.00149479)">
				<title>Hoja.41</title>
				<path d="M0 36.75 L11.81 36.75 L23.33 0.78 L11.8 9.75 L0 9.75 L11.81 0.75 L23.33 0.78 L23.31 27.75 L11.83 36.69 L11.8
							 9.75 L0 9.75 L0 36.75 Z" class="st8"/>
			</g>
			<g id="shape42-21" v:mID="42" v:groupContext="shape" v:layerMember="0" transform="translate(0,-27)">
				<title>Hoja.42</title>
				<path d="M0 36.75 L23.33 36.75" class="st5"/>
			</g>
			<g id="shape43-24" v:mID="43" v:groupContext="shape" v:layerMember="0" transform="translate(6.22688,-3.76887)">
				<title>Hoja.43</title>
				<path d="M0.7 36.61 a1.93018 0.730487 178.21 1 1 2.46285 -1.19125 a1.93018 0.730487 178.21 1 1 -2.46285 1.19125 Z"
						class="st9"/>
			</g>
			<g id="shape44-28" v:mID="44" v:groupContext="shape" v:layerMember="0" transform="translate(1.72688,-3.76887)">
				<title>Hoja.44</title>
				<path d="M0.7 36.61 a1.93018 0.730487 178.21 1 1 2.46285 -1.19125 a1.93018 0.730487 178.21 1 1 -2.46285 1.19125 Z"
						class="st9"/>
			</g>
			<g id="shape45-31" v:mID="45" v:groupContext="shape" v:layerMember="0" transform="translate(1.72688,-8.26887)">
				<title>Hoja.45</title>
				<path d="M0.7 36.61 a1.93018 0.730487 178.21 1 1 2.46285 -1.19125 a1.93018 0.730487 178.21 1 1 -2.46285 1.19125 Z"
						class="st9"/>
			</g>
			<g id="shape46-34" v:mID="46" v:groupContext="shape" v:layerMember="0" transform="translate(6.22688,-8.26887)">
				<title>Hoja.46</title>
				<path d="M0.7 36.61 a1.93018 0.730487 178.21 1 1 2.46285 -1.19125 a1.93018 0.730487 178.21 1 1 -2.46285 1.19125 Z"
						class="st9"/>
			</g>
			<g id="shape47-37" v:mID="47" v:groupContext="shape" v:layerMember="0" transform="translate(1.72688,-12.7689)">
				<title>Hoja.47</title>
				<path d="M0.7 36.61 a1.93018 0.730487 178.21 1 1 2.46285 -1.19125 a1.93018 0.730487 178.21 1 1 -2.46285 1.19125 Z"
						class="st9"/>
			</g>
			<g id="shape48-40" v:mID="48" v:groupContext="shape" v:layerMember="0" transform="translate(6.22688,-12.7689)">
				<title>Hoja.48</title>
				<path d="M0.7 36.61 a1.93018 0.730487 178.21 1 1 2.46285 -1.19125 a1.93018 0.730487 178.21 1 1 -2.46285 1.19125 Z"
						class="st9"/>
			</g>
			<g id="shape49-43" v:mID="49" v:groupContext="shape" v:layerMember="0" transform="translate(6.22688,-17.2689)">
				<title>Hoja.49</title>
				<path d="M0.7 36.61 a1.93018 0.730487 178.21 1 1 2.46285 -1.19125 a1.93018 0.730487 178.21 1 1 -2.46285 1.19125 Z"
						class="st9"/>
			</g>
			<g id="shape50-46" v:mID="50" v:groupContext="shape" v:layerMember="0" transform="translate(1.72688,-17.2689)">
				<title>Hoja.50</title>
				<path d="M0.7 36.61 a1.93018 0.730487 178.21 1 1 2.46285 -1.19125 a1.93018 0.730487 178.21 1 1 -2.46285 1.19125 Z"
						class="st9"/>
			</g>
			<g id="shape51-49" v:mID="51" v:groupContext="shape" v:layerMember="0" transform="translate(1.72688,-21.7689)">
				<title>Hoja.51</title>
				<path d="M0.7 36.61 a1.93018 0.730487 178.21 1 1 2.46285 -1.19125 a1.93018 0.730487 178.21 1 1 -2.46285 1.19125 Z"
						class="st9"/>
			</g>
			<g id="shape52-52" v:mID="52" v:groupContext="shape" v:layerMember="0" transform="translate(6.22688,-21.7689)">
				<title>Hoja.52</title>
				<path d="M0.7 36.61 a1.93018 0.730487 178.21 1 1 2.46285 -1.19125 a1.93018 0.730487 178.21 1 1 -2.46285 1.19125 Z"
						class="st9"/>
			</g>
		</g>
	</g>
</svg>
