<?xml version="1.0" encoding="UTF-8" standalone="no"?>
<!DOCTYPE svg PUBLIC "-//W3C//DTD SVG 1.1//EN" "http://www.w3.org/Graphics/SVG/1.1/DTD/svg11.dtd">
<!-- Generado por Microsoft Visio, SVG Export HEATING_COIL.svg Página-1 -->
<svg xmlns="http://www.w3.org/2000/svg" xmlns:xlink="http://www.w3.org/1999/xlink" xmlns:ev="http://www.w3.org/2001/xml-events"
		xmlns:v="http://schemas.microsoft.com/visio/2003/SVGExtensions/" width="2.13542in" height="0.947917in"
		viewBox="0 0 153.75 68.25" xml:space="preserve" color-interpolation-filters="sRGB" class="st12">
	<v:documentProperties v:langID="9226" v:metric="true" v:viewMarkup="false"/>

	<style type="text/css">
	<![CDATA[
		.st1 {fill:#ffffff;stroke:none;stroke-linecap:round;stroke-linejoin:round;stroke-width:0.75}
		.st2 {fill:url(#grad0-7);stroke:none;stroke-linecap:round;stroke-linejoin:round;stroke-width:0.75}
		.st3 {fill:url(#grad0-11);stroke:none;stroke-linecap:round;stroke-linejoin:round;stroke-width:0.75}
		.st4 {fill:#ffffff}
		.st5 {stroke:#000000;stroke-linecap:round;stroke-linejoin:round;stroke-width:0.75}
		.st6 {fill:url(#grad0-11)}
		.st7 {stroke:none;stroke-linecap:round;stroke-linejoin:round;stroke-width:0.75}
		.st8 {fill:none;stroke:#000000;stroke-linecap:round;stroke-linejoin:round;stroke-width:0.75}
		.st9 {fill:url(#grad1-24);stroke:none;stroke-linecap:round;stroke-linejoin:round;stroke-width:0.75}
		.st10 {fill:#ffffff;stroke:#000000;stroke-linecap:round;stroke-linejoin:round;stroke-width:0.75;visibility:hidden}
		.st11 {fill:none;stroke:none;stroke-linecap:round;stroke-linejoin:round;stroke-width:0.75}
		.st12 {fill:none;fill-rule:evenodd;font-size:12px;overflow:visible;stroke-linecap:square;stroke-miterlimit:3}
	]]>
	</style>

	<defs id="Patterns_And_Gradients">
		<linearGradient id="grad0-7" x1="0" y1="0" x2="1" y2="0" gradientTransform="rotate(270 0.5 0.5)">
			<stop offset="0" stop-color="#e20000" stop-opacity="1"/>
			<stop offset="1" stop-color="#ff5454" stop-opacity="1"/>
		</linearGradient>
		<linearGradient id="grad0-11" x1="0" y1="0" x2="1" y2="0" gradientTransform="rotate(270 0.5 0.5)">
			<stop offset="0" stop-color="#aa0000" stop-opacity="1"/>
			<stop offset="1" stop-color="#e20000" stop-opacity="1"/>
		</linearGradient>
		<radialGradient id="grad1-24" cx="1" cy="1" r="1.4">
			<stop offset="0" stop-color="#000000" stop-opacity="1"/>
			<stop offset="1" stop-color="#c48b19" stop-opacity="1"/>
		</radialGradient>
	</defs>
	<g v:mID="0" v:index="1" v:groupContext="foregroundPage">
		<v:userDefs>
			<v:ud v:nameU="AutoPlace" v:val="VT0(0):5"/>
		</v:userDefs>
		<title>Página-1</title>
		<v:pageProperties v:drawingScale="0.0393701" v:pageScale="0.0393701" v:drawingUnits="24" v:shadowOffsetX="8.50394"
				v:shadowOffsetY="-8.50394"/>
		<v:layer v:name="Drawing" v:index="0"/>
		<g id="group84-1" transform="translate(65.625,-0.375)" v:mID="84" v:groupContext="group" v:layerMember="0">
			<v:custProps>
				<v:cp v:nameU="CoilType" v:lbl="Coil Type"
						v:prompt="Select the coil type to determine its autoplace location or click cancel and move the coil manually"
						v:type="1" v:format="Pre-Heat Coil;Heating Coil" v:ask="false" v:langID="1033" v:cal="0"
						v:val="VT4(Heating Coil)"/>
			</v:custProps>
			<v:userDefs>
				<v:ud v:nameU="ClassID" v:val="VT4(HVACAIR.HeatingCoil)"/>
				<v:ud v:nameU="Version" v:val="VT4(1.1)"/>
				<v:ud v:nameU="Origin" v:val="VT4(MKEHQ)"/>
				<v:ud v:nameU="AutoPlace" v:val="VT0(0):5"/>
				<v:ud v:nameU="AutoPinX" v:val="VT0(0):26"/>
				<v:ud v:nameU="AutoPinY" v:val="VT0(0):26"/>
				<v:ud v:nameU="PHCPinX"/>
				<v:ud v:nameU="PHCPinY"/>
				<v:ud v:nameU="HCPinX"/>
				<v:ud v:nameU="HCPinY"/>
				<v:ud v:nameU="TypeCode" v:val="VT0(1):26"/>
				<v:ud v:nameU="HideLabel" v:val="VT0(1):5"/>
				<v:ud v:nameU="HideValueBox" v:val="VT0(1):5"/>
			</v:userDefs>
			<title>Heating Coil</title>
			<g id="shape85-2" v:mID="85" v:groupContext="shape" v:layerMember="0" transform="translate(11.8043,-0.0663222)">
				<title>Hoja.85</title>
				<path d="M11.49 32.34 L0 41.31 L0.03 68.25 L11.49 32.34 Z" class="st1"/>
			</g>
			<g id="shape86-4" v:mID="86" v:groupContext="shape" v:layerMember="0" transform="translate(0,-27.0015)">
				<title>Hoja.86</title>
				<path d="M11.66 68.25 L23.33 59.25 L11.8 59.25 L0 68.25 L11.66 68.25 Z" class="st2"/>
			</g>
			<g id="shape87-8" v:mID="87" v:groupContext="shape" v:layerMember="0" transform="translate(0,-0.00149479)">
				<title>Hoja.87</title>
				<rect x="0" y="41.25" width="11.8125" height="27" class="st3"/>
			</g>
			<g id="shape88-12" v:mID="88" v:groupContext="shape" v:layerMember="0" transform="translate(11.748,0)">
				<title>Hoja.88</title>
				<path d="M0 68.25 L0.09 68.18 L0 68.25 Z" class="st4"/>
				<path d="M0 68.25 L0.09 68.18" class="st5"/>
			</g>
			<g id="shape89-15" v:mID="89" v:groupContext="shape" v:layerMember="0" transform="translate(11.8125,-0.00149479)">
				<title>Hoja.89</title>
				<path d="M11.52 32.25 L0 68.25 L11.51 59.25 L11.51 32.25 L11.52 32.25 Z" class="st6"/>
				<path d="M11.52 32.25 L0 68.25 L11.51 59.25 L11.51 32.25" class="st7"/>
			</g>
			<g id="shape90-19" v:mID="90" v:groupContext="shape" v:layerMember="0" transform="translate(0,-0.00149479)">
				<title>Hoja.90</title>
				<path d="M0 68.25 L11.81 68.25 L23.33 32.28 L11.8 41.25 L0 41.25 L11.81 32.25 L23.33 32.28 L23.31 59.25 L11.83 68.19
							 L11.8 41.25 L0 41.25 L0 68.25 Z" class="st8"/>
			</g>
			<g id="shape91-21" v:mID="91" v:groupContext="shape" v:layerMember="0" transform="translate(1.72688,-21.7689)">
				<title>Hoja.91</title>
				<path d="M0.7 68.11 a1.93018 0.730487 178.21 1 1 2.46285 -1.19125 a1.93018 0.730487 178.21 1 1 -2.46285 1.19125 Z"
						class="st9"/>
			</g>
			<g id="shape92-25" v:mID="92" v:groupContext="shape" v:layerMember="0" transform="translate(6.22688,-21.7689)">
				<title>Hoja.92</title>
				<path d="M0.7 68.11 a1.93018 0.730487 178.21 1 1 2.46285 -1.19125 a1.93018 0.730487 178.21 1 1 -2.46285 1.19125 Z"
						class="st9"/>
			</g>
			<g id="shape93-28" v:mID="93" v:groupContext="shape" v:layerMember="0" transform="translate(1.72688,-17.2689)">
				<title>Hoja.93</title>
				<path d="M0.7 68.11 a1.93018 0.730487 178.21 1 1 2.46285 -1.19125 a1.93018 0.730487 178.21 1 1 -2.46285 1.19125 Z"
						class="st9"/>
			</g>
			<g id="shape94-31" v:mID="94" v:groupContext="shape" v:layerMember="0" transform="translate(6.22688,-17.2689)">
				<title>Hoja.94</title>
				<path d="M0.7 68.11 a1.93018 0.730487 178.21 1 1 2.46285 -1.19125 a1.93018 0.730487 178.21 1 1 -2.46285 1.19125 Z"
						class="st9"/>
			</g>
			<g id="shape95-34" v:mID="95" v:groupContext="shape" v:layerMember="0" transform="translate(1.72688,-12.7689)">
				<title>Hoja.95</title>
				<path d="M0.7 68.11 a1.93018 0.730487 178.21 1 1 2.46285 -1.19125 a1.93018 0.730487 178.21 1 1 -2.46285 1.19125 Z"
						class="st9"/>
			</g>
			<g id="shape96-37" v:mID="96" v:groupContext="shape" v:layerMember="0" transform="translate(6.22688,-12.7689)">
				<title>Hoja.96</title>
				<path d="M0.7 68.11 a1.93018 0.730487 178.21 1 1 2.46285 -1.19125 a1.93018 0.730487 178.21 1 1 -2.46285 1.19125 Z"
						class="st9"/>
			</g>
			<g id="shape97-40" v:mID="97" v:groupContext="shape" v:layerMember="0" transform="translate(1.72688,-8.26887)">
				<title>Hoja.97</title>
				<path d="M0.7 68.11 a1.93018 0.730487 178.21 1 1 2.46285 -1.19125 a1.93018 0.730487 178.21 1 1 -2.46285 1.19125 Z"
						class="st9"/>
			</g>
			<g id="shape98-43" v:mID="98" v:groupContext="shape" v:layerMember="0" transform="translate(6.22688,-8.26887)">
				<title>Hoja.98</title>
				<path d="M0.7 68.11 a1.93018 0.730487 178.21 1 1 2.46285 -1.19125 a1.93018 0.730487 178.21 1 1 -2.46285 1.19125 Z"
						class="st9"/>
			</g>
			<g id="shape99-46" v:mID="99" v:groupContext="shape" v:layerMember="0" transform="translate(1.72688,-3.76887)">
				<title>Hoja.99</title>
				<path d="M0.7 68.11 a1.93018 0.730487 178.21 1 1 2.46285 -1.19125 a1.93018 0.730487 178.21 1 1 -2.46285 1.19125 Z"
						class="st9"/>
			</g>
			<g id="shape100-49" v:mID="100" v:groupContext="shape" v:layerMember="0" transform="translate(6.22688,-3.76887)">
				<title>Hoja.100</title>
				<path d="M0.7 68.11 a1.93018 0.730487 178.21 1 1 2.46285 -1.19125 a1.93018 0.730487 178.21 1 1 -2.46285 1.19125 Z"
						class="st9"/>
			</g>
			<g id="shape101-52" v:mID="101" v:groupContext="shape" v:layerMember="0" transform="translate(0,-27.0015)">
				<title>Hoja.101</title>
				<path d="M0 68.25 L23.34 68.25" class="st5"/>
			</g>
			<g id="shape102-55" v:mID="102" v:groupContext="shape" transform="translate(-20.75,-44.5)">
				<title>Hoja.102</title>
				<desc>????</desc>
				<v:textBlock v:margins="rect(4,4,4,4)" v:tabSpace="42.5197"/>
				<v:textRect cx="32" cy="61" width="64" height="14.5"/>
				<rect x="0" y="53.75" width="64" height="14.5" class="st10"/>
			</g>
			<g id="shape103-57" v:mID="103" v:groupContext="shape" transform="translate(-65.25,-58.5)">
				<title>Hoja.103</title>
				<desc>Label</desc>
				<v:textBlock v:margins="rect(4,4,4,4)" v:tabSpace="42.5197"/>
				<v:textRect cx="76.5" cy="63.75" width="153" height="9"/>
				<rect x="0" y="59.25" width="153" height="9" class="st11"/>
			</g>
		</g>
	</g>
</svg>
